<svg width="214" height="945" viewBox="0 0 214 945" fill="none" xmlns="http://www.w3.org/2000/svg">
<path d="M5.40067 272.039C4.92658 285.401 5.31449 298.796 5.31449 312.392L214.615 312.392C214.615 298.085 215.294 284.425 214.496 270.871C211.382 218.026 173.8 176.409 121.187 171.665C87.4507 168.619 57.9816 178.288 34.3525 202.954C15.8199 222.314 6.33807 245.547 5.40067 272.039ZM144.342 216.497C167.863 228.958 177.69 250.058 178.444 276.454L41.2807 276.454C42.0457 253.486 49.9005 234.031 69.0258 220.775C92.9135 204.238 118.805 202.965 144.342 216.497Z" fill="white"/>
<path d="M27.5965 843.47C3.15924 873.729 3.82728 909.2 5.38962 945L214.517 945C214.517 930.587 215.239 916.566 214.367 902.651C212.707 876.107 202.945 852.608 183.734 833.631C160.805 810.981 132.769 801.917 100.585 804.56C70.4801 807.044 46.3554 820.247 27.5965 843.47ZM177.905 909.381L41.733 909.381C40.4185 876.669 65.4914 841.358 108.978 840.774C148.737 840.233 180.437 871.203 177.905 909.381Z" fill="white"/>
<path d="M64.9816 358.371C3.5761 369.431 -17.0792 437.454 15.3314 481.023C31.8922 503.28 55.0903 512.63 82.5553 512.673C124.9 512.726 167.245 512.694 209.59 512.673C211.228 512.673 212.876 512.418 214.417 512.312L214.417 477.372C211.68 477.372 209.396 477.372 207.09 477.372C166.663 477.372 126.236 477.414 85.8092 477.319C81.4239 477.308 76.9524 477.043 72.6963 476.141C45.4792 470.377 30.901 445.127 39.9625 419.739C45.5439 404.116 62.428 392.43 80.5619 392.282C108.921 392.059 137.28 392.186 165.629 392.176C181.716 392.165 197.802 392.176 214.514 392.176L214.514 357.076C212.682 356.949 211.195 356.769 209.687 356.769C167.719 356.758 125.773 356.694 83.8051 356.832C77.5234 356.864 71.1448 357.257 64.9816 358.371Z" fill="white"/>
<path d="M5.40742 556.764L5.40742 591.396L214.384 591.396L214.384 556.763L5.40742 556.764Z" fill="white"/>
<path d="M74.8624 766.99L145.168 766.99C185.67 766.99 213.954 739.129 213.954 699.232L213.954 632.239L179.486 632.239L179.486 699.232C179.486 707.161 177.007 733.037 145.168 733.037L127.745 733.037L127.745 649.91L92.296 649.91L92.296 733.037L74.8624 733.037C55.9419 733.037 40.5447 717.87 40.5447 699.232L40.5447 632.239L6.08691 632.239L6.08691 699.232C6.08691 736.592 36.9351 766.99 74.8624 766.99Z" fill="white"/>
<path d="M40.5401 66.9936L40.5401 4.42697e-05L6.0715 4.57764e-05L6.0715 66.9936C6.0715 104.354 36.9305 134.751 74.8578 134.751L145.163 134.751C185.666 134.751 213.939 106.89 213.939 66.9936L213.939 3.66902e-05L179.481 3.81964e-05L179.481 66.9936C179.481 74.922 176.992 100.798 145.163 100.798L127.73 100.798L127.73 17.6718L92.2806 17.6718L92.2806 100.798L74.8578 100.798C55.9372 100.798 40.5401 85.6312 40.5401 66.9936Z" fill="white"/>
</svg>
