<svg width="18" height="19" viewBox="0 0 18 19" fill="none" xmlns="http://www.w3.org/2000/svg">
<path d="M0.921296 17.9295L0.921291 17.9295C0.860248 17.8707 0.811362 17.8002 0.778182 17.7218C0.745235 17.6439 0.728621 17.5601 0.729624 17.4754M0.921296 17.9295L16.9916 17.6244C17.0113 17.5777 17.0211 17.5277 17.0204 17.4773H17.2704C17.2704 17.4768 17.2704 17.4763 17.2704 17.4757C17.2697 14.0764 15.0006 11.1864 11.841 10.0846C13.284 9.19598 14.2475 7.64809 14.2475 5.88382C14.2475 3.11642 11.882 0.887207 9.001 0.887207C6.11997 0.887207 3.75448 3.11642 3.75448 5.88382C3.75448 7.64805 4.71794 9.19593 6.1609 10.0846C3.00089 11.1862 0.730453 14.0761 0.729624 17.4754M0.921296 17.9295C0.982329 17.9883 1.05436 18.0344 1.13289 18.0656C1.21137 18.0968 1.2952 18.1127 1.37962 18.1127C1.46405 18.1127 1.54788 18.0968 1.62635 18.0656C1.70488 18.0344 1.77692 17.9883 1.83795 17.9295L1.66449 17.7495M0.921296 17.9295L1.66449 17.7495M0.729624 17.4754C0.729631 17.4748 0.729642 17.4742 0.729652 17.4736L0.979624 17.4773H0.729624C0.729624 17.4767 0.729624 17.4761 0.729624 17.4754ZM1.66449 17.7495C1.70171 17.7136 1.73105 17.6711 1.75082 17.6244C1.77058 17.5777 1.78037 17.5277 1.77962 17.4773H2.02962C2.02962 17.4768 2.02962 17.4762 2.02962 17.4757C2.03051 13.9302 4.97086 11.0262 8.69337 10.8735C8.79485 10.8792 8.89737 10.8823 9.001 10.8823C9.10461 10.8823 9.20714 10.8792 9.3086 10.8735C13.031 11.0261 15.9695 13.93 15.9704 17.4757C15.9704 17.4762 15.9704 17.4768 15.9704 17.4773H16.2204L1.66449 17.7495ZM9.001 2.14721C11.1982 2.14721 12.9475 3.82697 12.9475 5.88382C12.9475 7.84866 11.3518 9.47 9.29406 9.61207C9.19704 9.60883 9.09932 9.60704 9.001 9.60704C8.90268 9.60704 8.805 9.60883 8.70798 9.61207C6.6502 9.47002 5.05448 7.84867 5.05448 5.88382C5.05448 3.82697 6.80377 2.14721 9.001 2.14721Z" fill="#075754" stroke="#075754" stroke-width="0.5"/>
</svg>
